<svg width="41" height="49" viewBox="0 0 41 49" fill="none" xmlns="http://www.w3.org/2000/svg">
<path d="M30.0685 17.9342L12.1885 0.0541992L9.36849 2.8742L14.1285 7.6342L3.82849 17.9342C2.64849 19.1142 2.64849 21.0142 3.82849 22.1742L14.8285 33.1742C15.4085 33.7542 16.1885 34.0542 16.9485 34.0542C17.7085 34.0542 18.4885 33.7542 19.0685 33.1742L30.0685 22.1742C31.2485 21.0142 31.2485 19.1142 30.0685 17.9342ZM7.36849 20.0542L16.9485 10.4742L26.5285 20.0542H7.36849ZM34.9485 23.0542C34.9485 23.0542 30.9485 27.3942 30.9485 30.0542C30.9485 32.2542 32.7485 34.0542 34.9485 34.0542C37.1485 34.0542 38.9485 32.2542 38.9485 30.0542C38.9485 27.3942 34.9485 23.0542 34.9485 23.0542ZM0.948486 40.0542H40.9485V48.0542H0.948486V40.0542Z" fill="black"/>
</svg>
