<svg width="59" height="58" viewBox="0 0 59 58" fill="none" xmlns="http://www.w3.org/2000/svg">
<path fill-rule="evenodd" clip-rule="evenodd" d="M57.0033 8.87098C58.9559 6.91836 58.9559 3.75254 57.0033 1.79992C55.0506 -0.152706 51.8848 -0.152706 49.9322 1.79992L29.722 22.0101L9.5119 1.8C7.55928 -0.152623 4.39346 -0.152625 2.44083 1.8C0.488212 3.75262 0.488214 6.91844 2.44083 8.87106L22.6509 29.0812L2.44083 49.2913C0.48821 51.2439 0.488208 54.4097 2.44083 56.3624C4.39345 58.315 7.55928 58.315 9.5119 56.3624L29.722 36.1522L49.9322 56.3624C51.8848 58.3151 55.0506 58.3151 57.0033 56.3624C58.9559 54.4098 58.9559 51.244 57.0033 49.2914L36.7931 29.0812L57.0033 8.87098Z" fill="black"/>
</svg>
