<svg width="124" height="60" viewBox="0 0 124 60" fill="none" xmlns="http://www.w3.org/2000/svg">
<path fill-rule="evenodd" clip-rule="evenodd" d="M74.2124 48.4296C70.4948 51.1408 65.915 52.7406 60.9616 52.7406C56.0081 52.7406 51.4283 51.1408 47.7108 48.4296L60.9616 35.1788L74.2124 48.4296ZM79.1621 43.4798L65.9113 30.229L79.1621 16.9782C81.8733 20.6958 83.4732 25.2756 83.4732 30.229C83.4732 35.1825 81.8733 39.7622 79.1621 43.4798ZM74.2124 12.0285L60.9616 25.2793L47.7108 12.0285C51.4284 9.31727 56.0081 7.71741 60.9616 7.71741C65.915 7.71741 70.4948 9.31728 74.2124 12.0285ZM42.761 16.9782C40.0498 20.6958 38.4499 25.2756 38.4499 30.229C38.4499 35.1825 40.0498 39.7623 42.761 43.4798L56.0118 30.229L42.761 16.9782ZM90.2678 33.729C88.5368 48.3781 76.0761 59.7406 60.9616 59.7406C45.847 59.7406 33.3863 48.3781 31.6553 33.729L0.107194 33.7291L0.107178 26.7291L31.6553 26.729C33.3863 12.0799 45.847 0.717407 60.9616 0.717407C76.0761 0.717407 88.5368 12.0799 90.2678 26.729H123.261L123.261 33.729H90.2678Z" fill="#252525"/>
</svg>
