<svg width="124" height="41" viewBox="0 0 124 41" fill="none" xmlns="http://www.w3.org/2000/svg">
<path fill-rule="evenodd" clip-rule="evenodd" d="M33.154 6.70922L30.5184 0.704224L26.9966 6.23621L19.8935 17.3936L0.107206 17.3935L0.107178 24.3935L23.7932 24.3936L23.7932 24.1094L23.8807 24.1651L29.3797 15.5274L36.9798 32.8439L40.1265 40.0137L43.3702 32.8873L50.3198 17.6193L57.2693 32.8873L60.3044 39.5555L63.5844 33.0043L71.2844 17.6253L77.4861 32.7641L80.296 39.6234L83.8073 33.0953L92.9454 16.1054L98.0367 24.1562L98.0845 24.126V24.3935L123.261 24.3935V17.3935L102.042 17.3935L95.6593 7.30005L92.4569 2.23611L89.6188 7.51283L81.1537 23.2512L74.8421 7.84397L71.9221 0.716175L68.4736 7.60379L60.6052 23.3192L53.5053 7.72079L50.3198 0.722207L47.1342 7.72079L40.2429 22.861L33.154 6.70922Z" fill="#252525"/>
</svg>
