<svg width="138" height="247" viewBox="0 0 138 247" fill="none" xmlns="http://www.w3.org/2000/svg">
<path fill-rule="evenodd" clip-rule="evenodd" d="M79.3511 125.459H137.607V118.459H79.3511V125.459Z" fill="#252525"/>
<path fill-rule="evenodd" clip-rule="evenodd" d="M11.0505 170.699L11.0505 246.404L18.0505 246.404L18.0505 170.699L11.0505 170.699Z" fill="#252525"/>
<path fill-rule="evenodd" clip-rule="evenodd" d="M2.74097 125.459L68.6276 125.459L68.6276 118.459L2.74097 118.459L2.74097 125.459Z" fill="#252525"/>
<path fill-rule="evenodd" clip-rule="evenodd" d="M18.0505 70.6038L18.0505 0.687622L11.0505 0.687622L11.0505 70.6038L18.0505 70.6038Z" fill="#252525"/>
<path fill-rule="evenodd" clip-rule="evenodd" d="M74.3511 128.959C71.5897 128.959 69.3511 126.72 69.3511 123.959C69.3511 121.197 71.5897 118.959 74.3511 118.959C77.1125 118.959 79.3511 121.197 79.3511 123.959C79.3511 126.72 77.1125 128.959 74.3511 128.959ZM74.3511 135.959C67.7237 135.959 62.3511 130.586 62.3511 123.959C62.3511 117.331 67.7237 111.959 74.3511 111.959C80.9785 111.959 86.3511 117.331 86.3511 123.959C86.3511 130.586 80.9785 135.959 74.3511 135.959Z" fill="#252525"/>
<path fill-rule="evenodd" clip-rule="evenodd" d="M7.55054 162.613C7.55054 159.852 9.78911 157.613 12.5505 157.613C15.312 157.613 17.5505 159.852 17.5505 162.613C17.5505 165.375 15.312 167.613 12.5505 167.613C9.78911 167.613 7.55054 165.375 7.55054 162.613ZM0.550538 162.613C0.550538 155.986 5.92312 150.613 12.5505 150.613C19.178 150.613 24.5505 155.986 24.5505 162.613C24.5505 169.241 19.178 174.613 12.5505 174.613C5.92312 174.613 0.550537 169.241 0.550538 162.613Z" fill="#252525"/>
<path fill-rule="evenodd" clip-rule="evenodd" d="M17.5505 80.4409C17.5505 83.2023 15.312 85.4409 12.5505 85.4409C9.78911 85.4409 7.55054 83.2023 7.55054 80.4409C7.55054 77.6795 9.78911 75.4409 12.5505 75.4409C15.312 75.4409 17.5505 77.6795 17.5505 80.4409ZM24.5505 80.4409C24.5505 87.0683 19.178 92.4409 12.5505 92.4409C5.92312 92.4409 0.550536 87.0683 0.550537 80.4409C0.550537 73.8135 5.92312 68.4409 12.5505 68.4409C19.178 68.4409 24.5505 73.8135 24.5505 80.4409Z" fill="#252525"/>
</svg>
